<svg width="374" height="57" viewBox="0 0 374 57" fill="none" xmlns="http://www.w3.org/2000/svg">
<path d="M11.295 48.77C13.335 48.77 14.82 48.425 15.75 47.735C16.68 47.045 17.145 46.07 17.145 44.81C17.145 44.06 16.98 43.415 16.65 42.875C16.35 42.335 15.9 41.855 15.3 41.435C14.73 40.985 14.025 40.58 13.185 40.22C12.345 39.83 11.385 39.455 10.305 39.095C9.225 38.705 8.175 38.285 7.155 37.835C6.165 37.355 5.28 36.77 4.5 36.08C3.75 35.39 3.135 34.565 2.655 33.605C2.205 32.645 1.98 31.49 1.98 30.14C1.98 27.32 2.955 25.115 4.905 23.525C6.855 21.905 9.51 21.095 12.87 21.095C14.82 21.095 16.545 21.32 18.045 21.77C19.575 22.19 20.775 22.655 21.645 23.165L19.89 27.755C18.87 27.185 17.745 26.75 16.515 26.45C15.315 26.15 14.07 26 12.78 26C11.25 26 10.05 26.315 9.18 26.945C8.34 27.575 7.92 28.46 7.92 29.6C7.92 30.29 8.055 30.89 8.325 31.4C8.625 31.88 9.03 32.315 9.54 32.705C10.08 33.095 10.695 33.455 11.385 33.785C12.105 34.115 12.885 34.43 13.725 34.73C15.195 35.27 16.5 35.825 17.64 36.395C18.81 36.935 19.785 37.595 20.565 38.375C21.375 39.125 21.99 40.025 22.41 41.075C22.83 42.095 23.04 43.34 23.04 44.81C23.04 47.63 22.035 49.82 20.025 51.38C18.045 52.91 15.135 53.675 11.295 53.675C10.005 53.675 8.82 53.585 7.74 53.405C6.69 53.255 5.745 53.06 4.905 52.82C4.095 52.58 3.39 52.34 2.79 52.1C2.19 51.83 1.71 51.59 1.35 51.38L3.015 46.745C3.825 47.195 4.92 47.645 6.3 48.095C7.68 48.545 9.345 48.77 11.295 48.77ZM48.7368 53C48.3168 51.77 47.8818 50.555 47.4318 49.355C46.9818 48.155 46.5468 46.925 46.1268 45.665H32.9868C32.5668 46.925 32.1318 48.17 31.6818 49.4C31.2618 50.6 30.8418 51.8 30.4218 53H24.5268C25.6968 49.67 26.8068 46.595 27.8568 43.775C28.9068 40.955 29.9268 38.285 30.9168 35.765C31.9368 33.245 32.9418 30.845 33.9318 28.565C34.9218 26.285 35.9418 24.035 36.9918 21.815H42.3468C43.3968 24.035 44.4168 26.285 45.4068 28.565C46.3968 30.845 47.3868 33.245 48.3768 35.765C49.3968 38.285 50.4318 40.955 51.4818 43.775C52.5618 46.595 53.6868 49.67 54.8568 53H48.7368ZM39.5568 27.845C38.8668 29.435 38.0718 31.37 37.1718 33.65C36.3018 35.93 35.3868 38.405 34.4268 41.075H44.6868C43.7268 38.405 42.7968 35.915 41.8968 33.605C40.9968 31.295 40.2168 29.375 39.5568 27.845ZM79.8135 53C78.7935 51.29 77.6535 49.46 76.3935 47.51C75.1335 45.53 73.8285 43.55 72.4785 41.57C71.1285 39.56 69.7485 37.625 68.3385 35.765C66.9585 33.875 65.6385 32.18 64.3785 30.68V53H58.7985V21.815H63.4335C64.6335 23.075 65.9235 24.575 67.3035 26.315C68.6835 28.025 70.0635 29.81 71.4435 31.67C72.8535 33.53 74.2035 35.405 75.4935 37.295C76.8135 39.155 77.9835 40.895 79.0035 42.515V21.815H84.6285V53H79.8135ZM107.949 42.74C107.949 44.27 107.784 45.695 107.454 47.015C107.124 48.335 106.539 49.49 105.699 50.48C104.889 51.47 103.779 52.25 102.369 52.82C100.989 53.39 99.234 53.675 97.104 53.675C95.124 53.675 93.399 53.405 91.929 52.865C90.489 52.295 89.379 51.695 88.599 51.065L90.624 46.61C91.374 47.12 92.289 47.615 93.369 48.095C94.479 48.545 95.604 48.77 96.744 48.77C98.664 48.77 100.059 48.29 100.929 47.33C101.799 46.37 102.234 44.72 102.234 42.38V21.815H107.949V42.74ZM187.108 53C184.858 48.14 182.683 43.055 180.583 37.745C178.513 32.435 176.578 27.125 174.778 21.815H181.033C181.753 23.915 182.488 26.06 183.238 28.25C183.988 30.44 184.738 32.6 185.488 34.73C186.238 36.83 186.988 38.87 187.738 40.85C188.488 42.83 189.223 44.645 189.943 46.295C190.633 44.645 191.353 42.845 192.103 40.895C192.853 38.915 193.603 36.86 194.353 34.73C195.133 32.6 195.898 30.44 196.648 28.25C197.398 26.06 198.118 23.915 198.808 21.815H204.883C203.053 27.125 201.103 32.435 199.033 37.745C196.963 43.055 194.803 48.14 192.553 53H187.108ZM227.155 53C226.735 51.77 226.3 50.555 225.85 49.355C225.4 48.155 224.965 46.925 224.545 45.665H211.405C210.985 46.925 210.55 48.17 210.1 49.4C209.68 50.6 209.26 51.8 208.84 53H202.945C204.115 49.67 205.225 46.595 206.275 43.775C207.325 40.955 208.345 38.285 209.335 35.765C210.355 33.245 211.36 30.845 212.35 28.565C213.34 26.285 214.36 24.035 215.41 21.815H220.765C221.815 24.035 222.835 26.285 223.825 28.565C224.815 30.845 225.805 33.245 226.795 35.765C227.815 38.285 228.85 40.955 229.9 43.775C230.98 46.595 232.105 49.67 233.275 53H227.155ZM217.975 27.845C217.285 29.435 216.49 31.37 215.59 33.65C214.72 35.93 213.805 38.405 212.845 41.075H223.105C222.145 38.405 221.215 35.915 220.315 33.605C219.415 31.295 218.635 29.375 217.975 27.845ZM258.231 53C257.211 51.29 256.071 49.46 254.811 47.51C253.551 45.53 252.246 43.55 250.896 41.57C249.546 39.56 248.166 37.625 246.756 35.765C245.376 33.875 244.056 32.18 242.796 30.68V53H237.216V21.815H241.851C243.051 23.075 244.341 24.575 245.721 26.315C247.101 28.025 248.481 29.81 249.861 31.67C251.271 33.53 252.621 35.405 253.911 37.295C255.231 39.155 256.401 40.895 257.421 42.515V21.815H263.046V53H258.231ZM270.527 21.815H276.197V53H270.527V21.815Z" fill="black"/>
<path d="M127.639 56.5491L111.443 29.8994L127.71 20.0138L129.65 23.2056L117.113 30.8243L121.927 38.7462L133.079 31.9688L134.972 35.0837L123.82 41.8611L129.429 51.0904L142.927 42.8875L144.867 46.0793L127.639 56.5491Z" fill="#00FF85"/>
<path d="M155.639 56.5491L139.443 29.8994L155.71 20.0138L157.65 23.2056L145.113 30.8243L149.927 38.7462L161.079 31.9688L162.972 35.0837L151.82 41.8611L157.429 51.0904L170.927 42.8875L172.867 46.0793L155.639 56.5491Z" fill="#00FF85"/>
</svg>
